Husk 2011 DVDRip Xvid BigPerm LKRG


Information:

Encoded By .......: BigPerm
Runtime ..........: 1h 22mn
File Size ........: 776 MB
Resolution .......: 704 x 480
IMDb URL .........: http://www.imdb.com/title/tt1504403/
Genre ............: Drama,Horror,Thriller
Language .........: English
Subtitles ........: None
General
Complete name : Husk 2011 DVDRip Xvid BigPerm LKRGHBP_LKRG.avi
Format : AVI
Format/Info : Audio Video Interleave
File size : 776 MiB
Duration : 1h 22mn
Overall bit rate : 1 310 Kbps
Writing application : VirtualDubMod 1.5.10.2 (build 2540/release)
Writing library : VirtualDubMod build 2540/release


Video:

ID : 0
Format : MPEG-4 Visual
Format profile : Advanced Simple@L5
Format settings, BVOP : Yes
Format settings, QPel : No
Format settings, GMC : No warppoints
Format settings, Matrix : Default (H.263)
Muxing mode : Packed bitstream
Codec ID : XVID
Codec ID/Hint : XviD
Duration : 1h 22mn
Bit rate : 853 Kbps
Width : 704 pixels
Height : 480 pixels
Display aspect ratio : 4.513
Frame rate : 23.976 fps
Standard : NTSC
Color space : YUV
Chroma subsampling : 4:2:0
Bit depth : 8 bits
Scan type : Progressive
Compression mode : Lossy
Bits/(Pixel*Frame) : 0.105
Stream size : 505 MiB (65%)
Writing library : XviD 1.2.1 (UTC 2008-12-04)


Audio:

ID : 1
Format : AC-3
Format/Info : Audio Coding 3
Mode extension : CM (complete main)
Codec ID : 2000
Duration : 1h 22mn
Bit rate mode : Constant
Bit rate : 448 Kbps
Channel(s) : 6 channels
Channel positions : Front: L C R, Side: L R, LFE
Sampling rate : 48.0 KHz
Bit depth : 16 bits
Compression mode : Lossy
Stream size : 265 MiB (34%)
Alignment : Split accross interleaves
Interleave, duration : 42 ms (1.00 video frame)
Interleave, preload duration : 500 ms


Poster:

 
http://i.imgur.com/SV7zO.jpg


Screens:

 
http://i.imgur.com/xPtl5.png

 
http://i.imgur.com/fJvYf.png

 
http://i.imgur.com/K3HSU.png


ENJOY!